HIERARCHY
ROOT hip
{
	OFFSET 0.000000 0.000000 0.000000 
	CHANNELS 6 Xposition Yposition Zposition Xrotation Zrotation Yrotation
	JOINT abdomen
	{
		OFFSET 0.000000 3.402643 0.000000 
		CHANNELS 3 Xrotation Zrotation Yrotation
		JOINT chest
		{
			OFFSET 0.000000 8.438565 -0.680529 
			CHANNELS 3 Xrotation Zrotation Yrotation
			JOINT neck
			{
				OFFSET 0.000000 10.207942 -0.272212 
				CHANNELS 3 Xrotation Zrotation Yrotation
				JOINT head
				{
					OFFSET 0.000000 3.130431 0.000000 
					CHANNELS 3 Xrotation Zrotation Yrotation
					End Site
					{
						OFFSET 0.000000 3.130435 0.000000 
					}
				}
			}
			JOINT lCollar
			{
				OFFSET 3.470700 6.669187 -0.816635 
				CHANNELS 3 Yrotation Zrotation Xrotation
				JOINT lShldr
				{
					OFFSET 3.198488 0.000000 0.000000 
					CHANNELS 3 Zrotation Yrotation Xrotation
					JOINT lForeArm
					{
						OFFSET 10.139888 0.000000 0.000000 
						CHANNELS 3 Yrotation Zrotation Xrotation
						JOINT lHand
						{
							OFFSET 8.370511 0.000000 0.000000 
							CHANNELS 3 Zrotation Yrotation Xrotation
							End Site
							{
								OFFSET 4.083176 0.000000 0.000000 
							}
						}
					}
				}
			}
			JOINT rCollar
			{
				OFFSET -3.470700 6.669187 -0.816635 
				CHANNELS 3 Yrotation Zrotation Xrotation
				JOINT rShldr
				{
					OFFSET -3.198488 0.000000 0.000000 
					CHANNELS 3 Zrotation Yrotation Xrotation
					JOINT rForeArm
					{
						OFFSET -10.139888 0.000000 0.000000 
						CHANNELS 3 Yrotation Zrotation Xrotation
						JOINT rHand
						{
							OFFSET -8.370511 0.000000 0.000000 
							CHANNELS 3 Zrotation Yrotation Xrotation
							End Site
							{
								OFFSET -4.083176 0.000000 0.000000 
							}
						}
					}
				}
			}
		}
	}
	JOINT lThigh
	{
		OFFSET 5.308129 -1.633274 1.361059 
		CHANNELS 3 Xrotation Zrotation Yrotation
		JOINT lShin
		{
			OFFSET -2.041588 -20.007561 0.000000 
			CHANNELS 3 Xrotation Zrotation Yrotation
			JOINT lFoot
			{
				OFFSET 0.000000 -19.190928 -1.224953 
				CHANNELS 3 Xrotation Yrotation Zrotation
				End Site
				{
					OFFSET 0.000000 -2.449906 4.627600 
				}
			}
		}
	}
	JOINT rThigh
	{
		OFFSET -5.308129 -1.633274 1.361059 
		CHANNELS 3 Xrotation Zrotation Yrotation
		JOINT rShin
		{
			OFFSET 2.041588 -20.007561 0.000000 
			CHANNELS 3 Xrotation Zrotation Yrotation
			JOINT rFoot
			{
				OFFSET 0.000000 -19.190928 -1.224953 
				CHANNELS 3 Xrotation Yrotation Zrotation
				End Site
				{
					OFFSET 0.000000 -2.449906 4.627600 
				}
			}
		}
	}
}
MOTION
Frames: 13
Frame Time: 0.011111
-4.631390 49.824963 91.927505 153.625000 -179.565643 -6.109345 14.455831 1.340266 -1.354339 -25.354116 -0.425731 -0.404528 -30.572218 2.280166 1.051589 28.833866 -2.110115 3.088137 -5.788594 -15.737329 -1.465587 -41.445335 -21.176702 77.195930 -82.204971 5.261724 23.932238 8.524705 12.647240 -68.958389 7.611086 14.174596 -1.900835 52.350422 8.030040 53.070187 85.408066 -2.414883 27.141647 -8.534408 -12.637552 52.220566 -27.982553 2.147631 -2.243426 41.462746 -4.527144 -6.278302 -49.323044 1.496906 4.654778 -62.801281 -1.649916 -3.121962 52.268974 3.547098 7.413048 -22.329382 -7.365799 -0.226405 
-4.600664 49.857613 91.453796 153.513092 -179.391663 -6.147863 14.084053 1.221217 -1.833402 -25.725517 -0.116923 -0.509200 -30.616928 2.348945 1.203037 29.268644 -2.358158 3.409189 -5.788594 -15.737329 -1.465587 -42.120594 -22.357023 77.512466 -80.600395 6.186022 22.846367 8.524705 12.647240 -69.661507 7.611086 14.174596 -1.900835 52.671246 8.421297 52.102531 84.846687 -3.086246 26.343443 -8.534408 -12.637552 51.800640 -26.861591 1.962238 -2.264771 40.335224 -4.634414 -6.140630 -49.361706 1.786186 4.962573 -63.852707 -1.484106 -1.985319 50.187466 3.761986 7.211104 -20.770046 -7.836732 -0.050497 
-4.588501 49.872341 90.983620 153.487427 -179.319504 -5.981905 13.724794 1.235347 -2.261045 -25.403116 -0.128952 -0.635927 -31.112799 2.491689 1.292840 29.577047 -2.427397 3.641786 -5.788594 -15.737329 -1.465587 -42.460396 -24.432877 77.849907 -78.500549 7.132373 21.559204 8.524705 12.647240 -70.247444 7.611086 14.174596 -1.900835 53.099995 9.356469 50.718124 84.121979 -3.810095 25.547834 -8.534408 -12.637552 51.097511 -25.686842 1.757407 -2.464166 39.266850 -4.718952 -6.017571 -49.427998 1.808728 5.001364 -64.875565 -1.464724 -1.007832 48.360020 3.928124 7.023088 -19.076172 -8.555283 0.090376 
-4.580180 49.885456 90.535194 153.524582 -179.433868 -5.523968 13.666380 1.475203 -2.745407 -25.510221 -0.215475 -0.772980 -31.613192 2.700068 1.259856 30.179764 -2.525656 3.706409 -5.788594 -15.737329 -1.465587 -42.844677 -26.336538 78.518822 -76.062874 7.963172 20.196186 8.524705 12.647240 -71.087288 7.611086 14.174596 -1.900835 53.475475 10.079286 49.245052 83.224663 -4.556006 24.742975 -8.534408 -12.637552 50.687355 -24.486275 1.659537 -2.938035 38.128696 -4.800393 -5.886893 -49.374741 1.747262 4.911003 -65.799118 -1.542792 -0.120624 46.619011 4.094371 6.827684 -17.305767 -9.662767 0.182259 
-4.537611 49.866257 90.143753 153.163223 -179.130966 -5.143628 13.174813 1.100073 -3.377079 -25.959608 0.017924 -0.900360 -31.800535 2.875480 1.251062 30.831112 -2.625400 3.815685 -5.788594 -15.737329 -1.465587 -43.456631 -27.935982 78.767540 -73.368225 8.625378 18.772760 8.524705 12.647240 -71.966202 7.611086 14.174596 -1.900835 53.678703 10.703328 47.927399 81.934044 -5.438556 23.755503 -8.534408 -12.637552 50.531109 -23.870354 1.298409 -3.164183 37.019810 -4.874919 -5.745147 -49.043083 1.958347 4.970287 -67.674057 -1.591945 1.524246 45.102501 4.235190 6.657568 -15.783584 -11.467296 0.120784 
-4.520967 49.874252 89.634842 153.003723 -178.871979 -4.720371 12.554579 0.931942 -4.001316 -25.832743 0.178487 -1.048203 -32.215546 2.833519 1.372539 31.500628 -2.568556 4.074337 -5.788594 -15.737329 -1.465587 -44.149551 -29.817980 78.721024 -70.528709 9.091760 17.340815 8.524705 12.647240 -72.718155 7.611086 14.174596 -1.900835 53.657589 11.733682 46.575249 80.173035 -6.404845 22.581007 -8.534408 -12.637552 50.511574 -22.740044 0.917514 -3.251521 35.869595 -4.956913 -5.592263 -48.707836 2.333271 5.191280 -69.051247 -1.972357 2.396006 43.871059 4.328895 6.529850 -14.063782 -12.942414 0.242402 
-4.498241 49.851532 89.130096 152.993683 -178.727356 -4.679768 12.169184 0.740651 -4.187446 -25.530279 0.306564 -1.091499 -32.875504 2.757593 1.455010 32.055843 -2.326505 4.238621 -5.788594 -15.737329 -1.465587 -44.604801 -31.946312 78.746147 -67.617371 9.364032 15.926276 8.524705 12.647240 -74.153694 7.611086 14.174596 -1.900835 53.563393 13.030889 44.990944 78.118904 -7.287500 21.356890 -8.534408 -12.637552 50.550640 -21.464115 0.751582 -3.257771 34.708332 -5.024504 -5.470913 -48.587425 2.657699 5.421577 -70.152802 -1.943311 3.188297 42.844402 4.426559 6.419844 -13.194110 -14.158178 0.266817 
-4.478717 49.822723 88.595901 153.162155 -178.605286 -4.735134 11.809850 0.519028 -4.249276 -25.774450 0.314018 -1.074623 -32.709633 2.720623 1.446767 32.642094 -2.125748 4.286324 -5.788594 -15.737329 -1.465587 -45.063034 -33.388893 78.728889 -64.567627 9.457433 14.483136 8.524705 12.647240 -76.350960 7.611086 14.174596 -1.900835 53.521503 13.517818 43.345001 75.595253 -8.104166 19.963005 -8.534408 -12.637552 50.179550 -19.955151 0.585797 -3.303446 33.633553 -5.108289 -5.322326 -48.635044 2.651190 5.455817 -70.942009 -1.933766 3.628407 42.093849 4.492504 6.340166 -12.689496 -14.863217 0.283828 
-4.460473 49.774075 88.058510 153.629028 -178.477921 -4.707645 11.797805 0.333995 -4.468785 -26.555798 0.386395 -1.090865 -31.918909 2.642320 1.439802 33.130070 -2.000068 4.334357 -5.788594 -15.737329 -1.465587 -45.557674 -34.256104 78.485535 -61.764095 9.384506 13.188992 8.524705 12.647240 -78.675179 7.611086 14.174596 -1.900835 53.376080 13.530066 41.814407 72.938774 -8.718348 18.574331 -8.534408 -12.637552 49.847511 -18.132586 0.380533 -3.352004 32.647476 -5.176495 -5.195508 -48.705887 2.722909 5.556915 -71.300713 -2.061439 3.802138 41.579689 4.538424 6.292494 -12.242635 -15.357475 0.352837 
-4.424306 49.666214 87.613937 153.577286 -178.181137 -4.331741 11.465873 -0.054779 -5.009670 -26.937096 0.601240 -1.194758 -31.901539 2.729839 1.397199 33.684853 -2.129814 4.329560 -5.788594 -15.737329 -1.465587 -45.900135 -35.758865 77.618454 -59.015888 9.181338 11.958259 8.524705 12.647240 -80.765030 7.611086 14.174596 -1.900835 52.950253 14.325729 40.346863 70.017303 -9.160866 17.104683 -8.534408 -12.637552 49.671730 -17.085670 0.009783 -3.461677 31.728601 -5.244020 -5.093239 -48.513031 2.879575 5.563410 -72.447876 -2.509870 3.922917 41.333885 4.551384 6.246782 -12.060670 -15.976803 0.309336 
-4.398381 49.526340 87.125191 153.880295 -177.704956 -4.096439 11.467120 -0.678651 -5.354210 -27.074345 0.769424 -1.241200 -32.183460 2.687953 1.418482 34.367714 -1.995425 4.412406 -5.788594 -15.737329 -1.465587 -46.114567 -37.575336 76.507813 -56.393364 8.876136 10.816030 8.524705 12.647240 -82.513077 7.611086 14.174596 -1.900835 52.362194 15.348480 38.577053 67.016426 -9.404951 15.645154 -8.534408 -12.637552 49.085796 -15.550896 -0.634611 -3.750885 30.870663 -5.292159 -4.990219 -48.565170 2.807949 5.558180 -73.047485 -3.096444 3.693251 41.382778 4.557942 6.243686 -11.418242 -16.401037 0.449932 
-4.404782 49.388714 86.516418 154.328140 -177.706940 -3.817949 11.259971 -0.600528 -5.499465 -26.995663 0.648092 -1.271495 -32.213268 2.678352 1.400964 34.992229 -1.939689 4.456321 -5.788594 -15.737329 -1.465587 -46.242645 -39.247410 75.373917 -54.119755 8.523354 9.842069 8.524705 12.647240 -83.333389 7.611086 14.174596 -1.900835 51.551132 16.178432 36.886829 64.100624 -9.460032 14.271647 -8.534408 -12.637552 48.109238 -13.738176 -0.879004 -4.163733 30.163338 -5.323267 -4.886002 -48.808594 2.522717 5.412155 -72.929558 -3.789230 2.311632 41.708649 4.531917 6.281869 -10.163763 -16.314535 0.810847 
-4.386538 49.220356 85.959831 154.893661 -177.611343 -3.551317 11.438140 -0.730505 -5.791730 -26.966593 0.772752 -1.368197 -32.594376 2.729190 1.396914 35.790852 -1.995303 4.516147 -5.788594 -15.737329 -1.465587 -46.338211 -41.035297 73.414886 -51.879250 8.105859 8.917136 8.524705 12.647240 -83.704483 7.611086 14.174596 -1.900835 50.429844 17.219488 35.131042 61.234119 -9.365013 12.967881 -8.534408 -12.637552 46.400246 -11.885958 -1.112344 -4.334617 29.531767 -5.366187 -4.821395 -48.951031 2.427378 5.375070 -72.835548 -4.277231 1.569264 42.302345 4.465890 6.348378 -9.262430 -16.485270 1.043028 
